<?xml version="1.0" encoding="UTF-8" standalone="no"?><svg xmlns="http://www.w3.org/2000/svg" xmlns:xlink="http://www.w3.org/1999/xlink" contentScriptType="application/ecmascript" contentStyleType="text/css" height="516px" preserveAspectRatio="none" style="width:874px;height:516px;" version="1.1" viewBox="0 0 874 516" width="874px" zoomAndPan="magnify"><defs><filter height="300%" id="fz5l7yep4rte4" width="300%" x="-1" y="-1"><feGaussianBlur result="blurOut" stdDeviation="2.0"/><feColorMatrix in="blurOut" result="blurOut2" type="matrix" values="0 0 0 0 0 0 0 0 0 0 0 0 0 0 0 0 0 0 .4 0"/><feOffset dx="4.0" dy="4.0" in="blurOut2" result="blurOut3"/><feBlend in="SourceGraphic" in2="blurOut3" mode="normal"/></filter></defs><g><!--MD5=[f9ded337d1af320ba7666b71d64f2f75]
class データベース--><rect fill="#FEFECE" filter="url(#fz5l7yep4rte4)" height="48" id="データベース" style="stroke: #A80036; stroke-width: 1.5;" width="104" x="212" y="8"/><ellipse cx="227" cy="24" fill="#ADD1B2" rx="11" ry="11" style="stroke: #A80036; stroke-width: 1.0;"/><path d="M231.1094,30 L223.3906,30 L223.3906,17.6094 L231.1094,17.6094 L231.1094,19.7656 L225.8438,19.7656 L225.8438,22.4375 L230.6094,22.4375 L230.6094,24.5938 L225.8438,24.5938 L225.8438,27.8438 L231.1094,27.8438 L231.1094,30 Z "/><text fill="#000000" font-family="sans-serif" font-size="12" lengthAdjust="spacingAndGlyphs" textLength="72" x="241" y="28.1543">データベース</text><line style="stroke: #A80036; stroke-width: 1.5;" x1="213" x2="315" y1="40" y2="40"/><line style="stroke: #A80036; stroke-width: 1.5;" x1="213" x2="315" y1="48" y2="48"/><!--MD5=[3ff779c83933aca672d111664e368e80]
class スキーマ--><rect fill="#FEFECE" filter="url(#fz5l7yep4rte4)" height="48" id="スキーマ" style="stroke: #A80036; stroke-width: 1.5;" width="80" x="224" y="117"/><ellipse cx="239" cy="133" fill="#ADD1B2" rx="11" ry="11" style="stroke: #A80036; stroke-width: 1.0;"/><path d="M243.1094,139 L235.3906,139 L235.3906,126.6094 L243.1094,126.6094 L243.1094,128.7656 L237.8438,128.7656 L237.8438,131.4375 L242.6094,131.4375 L242.6094,133.5938 L237.8438,133.5938 L237.8438,136.8438 L243.1094,136.8438 L243.1094,139 Z "/><text fill="#000000" font-family="sans-serif" font-size="12" lengthAdjust="spacingAndGlyphs" textLength="48" x="253" y="137.1543">スキーマ</text><line style="stroke: #A80036; stroke-width: 1.5;" x1="225" x2="303" y1="149" y2="149"/><line style="stroke: #A80036; stroke-width: 1.5;" x1="225" x2="303" y1="157" y2="157"/><path d="M7,121 L7,161.2656 A0,0 0 0 0 7,161.2656 L189,161.2656 A0,0 0 0 0 189,161.2656 L189,145 L223.9197,141 L189,137 L189,131 L179,121 L7,121 A0,0 0 0 0 7,121 " fill="#FBFB77" filter="url(#fz5l7yep4rte4)" style="stroke: #A80036; stroke-width: 1.0;"/><path d="M179,121 L179,131 L189,131 L179,121 " fill="#FBFB77" style="stroke: #A80036; stroke-width: 1.0;"/><text fill="#000000" font-family="sans-serif" font-size="13" lengthAdjust="spacingAndGlyphs" textLength="161" x="13" y="138.0669">MySQLでいうデータベース</text><text fill="#000000" font-family="sans-serif" font-size="13" lengthAdjust="spacingAndGlyphs" textLength="119" x="13" y="153.1997">Oracleだと複数持つ</text><!--MD5=[a07de746a5f5aa69eec0221797727ab9]
class ユーザ--><rect fill="#FEFECE" filter="url(#fz5l7yep4rte4)" height="48" id="ユーザ" style="stroke: #A80036; stroke-width: 1.5;" width="68" x="465" y="117"/><ellipse cx="480" cy="133" fill="#ADD1B2" rx="11" ry="11" style="stroke: #A80036; stroke-width: 1.0;"/><path d="M484.1094,139 L476.3906,139 L476.3906,126.6094 L484.1094,126.6094 L484.1094,128.7656 L478.8438,128.7656 L478.8438,131.4375 L483.6094,131.4375 L483.6094,133.5938 L478.8438,133.5938 L478.8438,136.8438 L484.1094,136.8438 L484.1094,139 Z "/><text fill="#000000" font-family="sans-serif" font-size="12" lengthAdjust="spacingAndGlyphs" textLength="36" x="494" y="137.1543">ユーザ</text><line style="stroke: #A80036; stroke-width: 1.5;" x1="466" x2="532" y1="149" y2="149"/><line style="stroke: #A80036; stroke-width: 1.5;" x1="466" x2="532" y1="157" y2="157"/><!--MD5=[36996a0f708a7d4095058f35d980fc85]
class データベースオブジェクト--><rect fill="#FEFECE" filter="url(#fz5l7yep4rte4)" height="48" id="データベースオブジェクト" style="stroke: #A80036; stroke-width: 1.5;" width="176" x="176" y="226"/><ellipse cx="191" cy="242" fill="#ADD1B2" rx="11" ry="11" style="stroke: #A80036; stroke-width: 1.0;"/><path d="M195.1094,248 L187.3906,248 L187.3906,235.6094 L195.1094,235.6094 L195.1094,237.7656 L189.8438,237.7656 L189.8438,240.4375 L194.6094,240.4375 L194.6094,242.5938 L189.8438,242.5938 L189.8438,245.8438 L195.1094,245.8438 L195.1094,248 Z "/><text fill="#000000" font-family="sans-serif" font-size="12" lengthAdjust="spacingAndGlyphs" textLength="144" x="205" y="246.1543">データベースオブジェクト</text><line style="stroke: #A80036; stroke-width: 1.5;" x1="177" x2="351" y1="258" y2="258"/><line style="stroke: #A80036; stroke-width: 1.5;" x1="177" x2="351" y1="266" y2="266"/><!--MD5=[3fb226bc902014a366ce03789f0c1120]
class 表--><rect fill="#FEFECE" filter="url(#fz5l7yep4rte4)" height="60.8047" id="表" style="stroke: #A80036; stroke-width: 1.5;" width="92" x="6" y="335"/><ellipse cx="42.6" cy="351" fill="#ADD1B2" rx="11" ry="11" style="stroke: #A80036; stroke-width: 1.0;"/><path d="M46.7094,357 L38.9906,357 L38.9906,344.6094 L46.7094,344.6094 L46.7094,346.7656 L41.4438,346.7656 L41.4438,349.4375 L46.2094,349.4375 L46.2094,351.5938 L41.4438,351.5938 L41.4438,354.8438 L46.7094,354.8438 L46.7094,357 Z "/><text fill="#000000" font-family="sans-serif" font-size="12" lengthAdjust="spacingAndGlyphs" textLength="12" x="61.4" y="355.1543">表</text><line style="stroke: #A80036; stroke-width: 1.5;" x1="7" x2="97" y1="367" y2="367"/><ellipse cx="17" cy="378" fill="#000000" rx="3" ry="3" style="stroke: #000000; stroke-width: 1.0;"/><text fill="#000000" font-family="sans-serif" font-size="11" lengthAdjust="spacingAndGlyphs" textLength="66" x="26" y="381.2104">インデックス</text><line style="stroke: #A80036; stroke-width: 1.5;" x1="7" x2="97" y1="387.8047" y2="387.8047"/><!--MD5=[c38853aab8785e37d210dbde5b34e3f7]
class ビュー--><rect fill="#FEFECE" filter="url(#fz5l7yep4rte4)" height="48" id="ビュー" style="stroke: #A80036; stroke-width: 1.5;" width="68" x="133" y="341.5"/><ellipse cx="148" cy="357.5" fill="#ADD1B2" rx="11" ry="11" style="stroke: #A80036; stroke-width: 1.0;"/><path d="M152.1094,363.5 L144.3906,363.5 L144.3906,351.1094 L152.1094,351.1094 L152.1094,353.2656 L146.8438,353.2656 L146.8438,355.9375 L151.6094,355.9375 L151.6094,358.0938 L146.8438,358.0938 L146.8438,361.3438 L152.1094,361.3438 L152.1094,363.5 Z "/><text fill="#000000" font-family="sans-serif" font-size="12" lengthAdjust="spacingAndGlyphs" textLength="36" x="162" y="361.6543">ビュー</text><line style="stroke: #A80036; stroke-width: 1.5;" x1="134" x2="200" y1="373.5" y2="373.5"/><line style="stroke: #A80036; stroke-width: 1.5;" x1="134" x2="200" y1="381.5" y2="381.5"/><!--MD5=[50baee4af5b59f0eb4277934b664af30]
class 順序--><rect fill="#FEFECE" filter="url(#fz5l7yep4rte4)" height="48" id="順序" style="stroke: #A80036; stroke-width: 1.5;" width="56" x="236" y="341.5"/><ellipse cx="251" cy="357.5" fill="#ADD1B2" rx="11" ry="11" style="stroke: #A80036; stroke-width: 1.0;"/><path d="M255.1094,363.5 L247.3906,363.5 L247.3906,351.1094 L255.1094,351.1094 L255.1094,353.2656 L249.8438,353.2656 L249.8438,355.9375 L254.6094,355.9375 L254.6094,358.0938 L249.8438,358.0938 L249.8438,361.3438 L255.1094,361.3438 L255.1094,363.5 Z "/><text fill="#000000" font-family="sans-serif" font-size="12" lengthAdjust="spacingAndGlyphs" textLength="24" x="265" y="361.6543">順序</text><line style="stroke: #A80036; stroke-width: 1.5;" x1="237" x2="291" y1="373.5" y2="373.5"/><line style="stroke: #A80036; stroke-width: 1.5;" x1="237" x2="291" y1="381.5" y2="381.5"/><!--MD5=[ef4438ada076e2efdc7ecdd9b76f2bcb]
class シノニム--><rect fill="#FEFECE" filter="url(#fz5l7yep4rte4)" height="48" id="シノニム" style="stroke: #A80036; stroke-width: 1.5;" width="80" x="327" y="341.5"/><ellipse cx="342" cy="357.5" fill="#ADD1B2" rx="11" ry="11" style="stroke: #A80036; stroke-width: 1.0;"/><path d="M346.1094,363.5 L338.3906,363.5 L338.3906,351.1094 L346.1094,351.1094 L346.1094,353.2656 L340.8438,353.2656 L340.8438,355.9375 L345.6094,355.9375 L345.6094,358.0938 L340.8438,358.0938 L340.8438,361.3438 L346.1094,361.3438 L346.1094,363.5 Z "/><text fill="#000000" font-family="sans-serif" font-size="12" lengthAdjust="spacingAndGlyphs" textLength="48" x="356" y="361.6543">シノニム</text><line style="stroke: #A80036; stroke-width: 1.5;" x1="328" x2="406" y1="373.5" y2="373.5"/><line style="stroke: #A80036; stroke-width: 1.5;" x1="328" x2="406" y1="381.5" y2="381.5"/><!--MD5=[406f97676317b2334ef55e16ea33c33d]
class ストアドプログラム--><rect fill="#FEFECE" filter="url(#fz5l7yep4rte4)" height="48" id="ストアドプログラム" style="stroke: #A80036; stroke-width: 1.5;" width="140" x="442" y="341.5"/><ellipse cx="457" cy="357.5" fill="#ADD1B2" rx="11" ry="11" style="stroke: #A80036; stroke-width: 1.0;"/><path d="M461.1094,363.5 L453.3906,363.5 L453.3906,351.1094 L461.1094,351.1094 L461.1094,353.2656 L455.8438,353.2656 L455.8438,355.9375 L460.6094,355.9375 L460.6094,358.0938 L455.8438,358.0938 L455.8438,361.3438 L461.1094,361.3438 L461.1094,363.5 Z "/><text fill="#000000" font-family="sans-serif" font-size="12" lengthAdjust="spacingAndGlyphs" textLength="108" x="471" y="361.6543">ストアドプログラム</text><line style="stroke: #A80036; stroke-width: 1.5;" x1="443" x2="581" y1="373.5" y2="373.5"/><line style="stroke: #A80036; stroke-width: 1.5;" x1="443" x2="581" y1="381.5" y2="381.5"/><!--MD5=[91b826681650ab02e9c66e65d08ffcf3]
class ストアドプロシージャ--><rect fill="#FEFECE" filter="url(#fz5l7yep4rte4)" height="48" id="ストアドプロシージャ" style="stroke: #A80036; stroke-width: 1.5;" width="152" x="150" y="457"/><ellipse cx="165" cy="473" fill="#ADD1B2" rx="11" ry="11" style="stroke: #A80036; stroke-width: 1.0;"/><path d="M167.9688,478.6406 Q167.3906,478.9375 166.75,479.0781 Q166.1094,479.2344 165.4063,479.2344 Q162.9063,479.2344 161.5781,477.5938 Q160.2656,475.9375 160.2656,472.8125 Q160.2656,469.6875 161.5781,468.0313 Q162.9063,466.375 165.4063,466.375 Q166.1094,466.375 166.75,466.5313 Q167.4063,466.6875 167.9688,466.9844 L167.9688,469.7031 Q167.3438,469.125 166.75,468.8594 Q166.1563,468.5781 165.5313,468.5781 Q164.1875,468.5781 163.5,469.6563 Q162.8125,470.7188 162.8125,472.8125 Q162.8125,474.9063 163.5,475.9844 Q164.1875,477.0469 165.5313,477.0469 Q166.1563,477.0469 166.75,476.7813 Q167.3438,476.5 167.9688,475.9219 L167.9688,478.6406 Z "/><text fill="#000000" font-family="sans-serif" font-size="12" lengthAdjust="spacingAndGlyphs" textLength="120" x="179" y="477.1543">ストアドプロシージャ</text><line style="stroke: #A80036; stroke-width: 1.5;" x1="151" x2="301" y1="489" y2="489"/><line style="stroke: #A80036; stroke-width: 1.5;" x1="151" x2="301" y1="497" y2="497"/><!--MD5=[d045e6d21edbda3ad1e6a48f5d4f18af]
class ストアドファンクション--><rect fill="#FEFECE" filter="url(#fz5l7yep4rte4)" height="48" id="ストアドファンクション" style="stroke: #A80036; stroke-width: 1.5;" width="164" x="337" y="457"/><ellipse cx="352" cy="473" fill="#ADD1B2" rx="11" ry="11" style="stroke: #A80036; stroke-width: 1.0;"/><path d="M354.9688,478.6406 Q354.3906,478.9375 353.75,479.0781 Q353.1094,479.2344 352.4063,479.2344 Q349.9063,479.2344 348.5781,477.5938 Q347.2656,475.9375 347.2656,472.8125 Q347.2656,469.6875 348.5781,468.0313 Q349.9063,466.375 352.4063,466.375 Q353.1094,466.375 353.75,466.5313 Q354.4063,466.6875 354.9688,466.9844 L354.9688,469.7031 Q354.3438,469.125 353.75,468.8594 Q353.1563,468.5781 352.5313,468.5781 Q351.1875,468.5781 350.5,469.6563 Q349.8125,470.7188 349.8125,472.8125 Q349.8125,474.9063 350.5,475.9844 Q351.1875,477.0469 352.5313,477.0469 Q353.1563,477.0469 353.75,476.7813 Q354.3438,476.5 354.9688,475.9219 L354.9688,478.6406 Z "/><text fill="#000000" font-family="sans-serif" font-size="12" lengthAdjust="spacingAndGlyphs" textLength="132" x="366" y="477.1543">ストアドファンクション</text><line style="stroke: #A80036; stroke-width: 1.5;" x1="338" x2="500" y1="489" y2="489"/><line style="stroke: #A80036; stroke-width: 1.5;" x1="338" x2="500" y1="497" y2="497"/><!--MD5=[acd4c794fd10d863ac0475cdb4459e31]
class ストアドパッケージ--><rect fill="#FEFECE" filter="url(#fz5l7yep4rte4)" height="48" id="ストアドパッケージ" style="stroke: #A80036; stroke-width: 1.5;" width="140" x="536" y="457"/><ellipse cx="551" cy="473" fill="#ADD1B2" rx="11" ry="11" style="stroke: #A80036; stroke-width: 1.0;"/><path d="M553.9688,478.6406 Q553.3906,478.9375 552.75,479.0781 Q552.1094,479.2344 551.4063,479.2344 Q548.9063,479.2344 547.5781,477.5938 Q546.2656,475.9375 546.2656,472.8125 Q546.2656,469.6875 547.5781,468.0313 Q548.9063,466.375 551.4063,466.375 Q552.1094,466.375 552.75,466.5313 Q553.4063,466.6875 553.9688,466.9844 L553.9688,469.7031 Q553.3438,469.125 552.75,468.8594 Q552.1563,468.5781 551.5313,468.5781 Q550.1875,468.5781 549.5,469.6563 Q548.8125,470.7188 548.8125,472.8125 Q548.8125,474.9063 549.5,475.9844 Q550.1875,477.0469 551.5313,477.0469 Q552.1563,477.0469 552.75,476.7813 Q553.3438,476.5 553.9688,475.9219 L553.9688,478.6406 Z "/><text fill="#000000" font-family="sans-serif" font-size="12" lengthAdjust="spacingAndGlyphs" textLength="108" x="565" y="477.1543">ストアドパッケージ</text><line style="stroke: #A80036; stroke-width: 1.5;" x1="537" x2="675" y1="489" y2="489"/><line style="stroke: #A80036; stroke-width: 1.5;" x1="537" x2="675" y1="497" y2="497"/><!--MD5=[1d60faaeb087ac49600e121b49b87771]
class データベーストリガー--><rect fill="#FEFECE" filter="url(#fz5l7yep4rte4)" height="48" id="データベーストリガー" style="stroke: #A80036; stroke-width: 1.5;" width="152" x="711" y="457"/><ellipse cx="726" cy="473" fill="#ADD1B2" rx="11" ry="11" style="stroke: #A80036; stroke-width: 1.0;"/><path d="M728.9688,478.6406 Q728.3906,478.9375 727.75,479.0781 Q727.1094,479.2344 726.4063,479.2344 Q723.9063,479.2344 722.5781,477.5938 Q721.2656,475.9375 721.2656,472.8125 Q721.2656,469.6875 722.5781,468.0313 Q723.9063,466.375 726.4063,466.375 Q727.1094,466.375 727.75,466.5313 Q728.4063,466.6875 728.9688,466.9844 L728.9688,469.7031 Q728.3438,469.125 727.75,468.8594 Q727.1563,468.5781 726.5313,468.5781 Q725.1875,468.5781 724.5,469.6563 Q723.8125,470.7188 723.8125,472.8125 Q723.8125,474.9063 724.5,475.9844 Q725.1875,477.0469 726.5313,477.0469 Q727.1563,477.0469 727.75,476.7813 Q728.3438,476.5 728.9688,475.9219 L728.9688,478.6406 Z "/><text fill="#000000" font-family="sans-serif" font-size="12" lengthAdjust="spacingAndGlyphs" textLength="120" x="740" y="477.1543">データベーストリガー</text><line style="stroke: #A80036; stroke-width: 1.5;" x1="712" x2="862" y1="489" y2="489"/><line style="stroke: #A80036; stroke-width: 1.5;" x1="712" x2="862" y1="497" y2="497"/><!--MD5=[51edca40b7c4df26900f2ca867ecaa76]
reverse link データベース to スキーマ--><path d="M264,69.3192 C264,85.0548 264,102.9189 264,116.877 " fill="none" id="データベース&lt;-スキーマ" style="stroke: #A80036; stroke-width: 1.0;"/><polygon fill="#FFFFFF" points="264,56.1906,260,62.1906,264,68.1906,268,62.1906,264,56.1906" style="stroke: #A80036; stroke-width: 1.0;"/><!--MD5=[977340d4e1f7fd7146fda7b8f44fadee]
reverse link スキーマ to データベースオブジェクト--><path d="M264,178.3192 C264,194.0548 264,211.9189 264,225.877 " fill="none" id="スキーマ&lt;-データベースオブジェクト" style="stroke: #A80036; stroke-width: 1.0;"/><polygon fill="#FFFFFF" points="264,165.1906,260,171.1906,264,177.1906,268,171.1906,264,165.1906" style="stroke: #A80036; stroke-width: 1.0;"/><!--MD5=[d7331168bfa5875c963f3add12dd7053]
link スキーマ to ユーザ--><path d="M304.1309,141 C349.3575,141 422.1134,141 464.7637,141 " fill="none" id="スキーマ-ユーザ" style="stroke: #A80036; stroke-width: 1.0;"/><path d="M326.5,89 L326.5,129 L438.5,129 L438.5,99 L428.5,89 L326.5,89 " fill="#FBFB77" filter="url(#fz5l7yep4rte4)" style="stroke: #A80036; stroke-width: 1.0;"/><path d="M428.5,89 L428.5,99 L438.5,99 L428.5,89 " fill="#FBFB77" style="stroke: #A80036; stroke-width: 1.0;"/><text fill="#000000" font-family="sans-serif" font-size="13" lengthAdjust="spacingAndGlyphs" textLength="91" x="332.5" y="106.0669">スキーマごとに</text><text fill="#000000" font-family="sans-serif" font-size="13" lengthAdjust="spacingAndGlyphs" textLength="78" x="332.5" y="121.1997">ユーザをもつ</text><!--MD5=[05ac831ba55545fbe4343cedae94db97]
reverse link データベースオブジェクト to 表--><path d="M202.2113,283.6632 C169.0266,301.7426 128.7989,323.6591 98.3283,340.2598 " fill="none" id="データベースオブジェクト&lt;-表" style="stroke: #A80036; stroke-width: 1.0;"/><polygon fill="none" points="198.9043,277.4934,219.8159,274.072,205.6022,289.7873,198.9043,277.4934" style="stroke: #A80036; stroke-width: 1.0;"/><!--MD5=[84e6281ee8a4da7a2e8cb6cdd48d2bcf]
reverse link データベースオブジェクト to ビュー--><path d="M230.6488,289.712 C216.2398,306.8691 199.8477,326.3875 187.3076,341.3193 " fill="none" id="データベースオブジェクト&lt;-ビュー" style="stroke: #A80036; stroke-width: 1.0;"/><polygon fill="none" points="225.4429,285.0262,243.6656,274.2126,236.1637,294.0298,225.4429,285.0262" style="stroke: #A80036; stroke-width: 1.0;"/><!--MD5=[15954ebd245025e40bfb30c4704d73a9]
reverse link データベースオブジェクト to 順序--><path d="M264,294.2721 C264,310.2546 264,327.696 264,341.3193 " fill="none" id="データベースオブジェクト&lt;-順序" style="stroke: #A80036; stroke-width: 1.0;"/><polygon fill="none" points="257.0001,294.2126,264,274.2126,271.0001,294.2125,257.0001,294.2126" style="stroke: #A80036; stroke-width: 1.0;"/><!--MD5=[63b495288d5f7dcdf3ba387dc8fdc1a7]
reverse link データベースオブジェクト to シノニム--><path d="M298.9416,289.1821 C314.3551,306.4662 331.9832,326.2336 345.4363,341.3193 " fill="none" id="データベースオブジェクト&lt;-シノニム" style="stroke: #A80036; stroke-width: 1.0;"/><polygon fill="none" points="293.6792,293.7984,285.5922,274.2126,304.1279,284.4804,293.6792,293.7984" style="stroke: #A80036; stroke-width: 1.0;"/><!--MD5=[acd81e8148c83d2df0dbd153dea66061]
reverse link データベースオブジェクト to ストアドプログラム--><path d="M333.9816,282.5922 C374.1641,301.3063 423.7532,324.4012 460.3795,341.459 " fill="none" id="データベースオブジェクト&lt;-ストアドプログラム" style="stroke: #A80036; stroke-width: 1.0;"/><polygon fill="none" points="330.8619,288.8613,315.6871,274.072,336.7726,276.1702,330.8619,288.8613" style="stroke: #A80036; stroke-width: 1.0;"/><!--MD5=[9dfd569ed0872d994c8b0408333264f2]
reverse link ストアドプログラム to ストアドプロシージャ--><path d="M433.8007,397.0805 C387.0309,415.9683 328.5329,439.5925 285.5301,456.959 " fill="none" id="ストアドプログラム&lt;-ストアドプロシージャ" style="stroke: #A80036; stroke-width: 1.0;"/><polygon fill="none" points="431.2271,390.5706,452.3932,389.572,436.4696,403.552,431.2271,390.5706" style="stroke: #A80036; stroke-width: 1.0;"/><!--MD5=[12cf0d7bbbc2c29d4891bf54bdbcad93]
reverse link ストアドプログラム to ストアドファンクション--><path d="M479.8104,405.4775 C466.0474,422.5702 450.4312,441.9645 438.4702,456.8193 " fill="none" id="ストアドプログラム&lt;-ストアドファンクション" style="stroke: #A80036; stroke-width: 1.0;"/><polygon fill="none" points="474.5087,400.9003,492.5042,389.7126,485.4132,409.6806,474.5087,400.9003" style="stroke: #A80036; stroke-width: 1.0;"/><!--MD5=[b3c60b9ff07a3740f078acd57bdc4c6d]
reverse link ストアドプログラム to ストアドパッケージ--><path d="M544.5358,405.4775 C558.4468,422.5702 574.2308,441.9645 586.3205,456.8193 " fill="none" id="ストアドプログラム&lt;-ストアドパッケージ" style="stroke: #A80036; stroke-width: 1.0;"/><polygon fill="none" points="538.9008,409.6432,531.7055,389.7126,549.7592,400.806,538.9008,409.6432" style="stroke: #A80036; stroke-width: 1.0;"/><!--MD5=[8b8f567381bb1502031a7d73083bb02b]
reverse link ストアドプログラム to データベーストリガー--><path d="M587.7919,397.3326 C632.6622,416.1781 688.5944,439.6697 729.7595,456.959 " fill="none" id="ストアドプログラム&lt;-データベーストリガー" style="stroke: #A80036; stroke-width: 1.0;"/><polygon fill="none" points="585.0433,403.7706,569.3143,389.572,590.4646,390.8628,585.0433,403.7706" style="stroke: #A80036; stroke-width: 1.0;"/><!--MD5=[940fe2f2400855b1dfe6bc0a75592a1a]
@startuml

entity データベース {
}
entity スキーマ {
}
  note left of スキーマ
    MySQLでいうデータベース
    Oracleだと複数持つ
  end note
entity ユーザ {

}
entity データベースオブジェクト {
}
entity 表 {
  * インデックス
}
entity ビュー {
}
entity 順序 {
}
entity シノニム {
}
entity ストアドプログラム {
}

データベース o-down- スキーマ
スキーマ o-down- データベースオブジェクト
スキーマ -right- ユーザ
  note on link
    スキーマごとに
    ユーザをもつ
  end note
データベースオブジェクト <|-down- 表
データベースオブジェクト <|-down- ビュー
データベースオブジェクト <|-down- 順序
データベースオブジェクト <|-down- シノニム
データベースオブジェクト <|-down- ストアドプログラム
ストアドプログラム <|-down- ストアドプロシージャ
ストアドプログラム <|-down- ストアドファンクション
ストアドプログラム <|-down- ストアドパッケージ
ストアドプログラム <|-down- データベーストリガー

@enduml

PlantUML version 1.2020.02(Sun Mar 01 10:22:07 UTC 2020)
(GPL source distribution)
Java Runtime: OpenJDK Runtime Environment
JVM: OpenJDK 64-Bit Server VM
Java Version: 1.8.0_242-b08
Operating System: Linux
Default Encoding: UTF-8
Language: en
Country: null
--></g></svg>