<?xml version="1.0" encoding="UTF-8" standalone="no"?><svg xmlns="http://www.w3.org/2000/svg" xmlns:xlink="http://www.w3.org/1999/xlink" contentScriptType="application/ecmascript" contentStyleType="text/css" height="1076px" preserveAspectRatio="none" style="width:772px;height:1076px;" version="1.1" viewBox="0 0 772 1076" width="772px" zoomAndPan="magnify"><defs><filter height="300%" id="fobhkp3qv7pf1" width="300%" x="-1" y="-1"><feGaussianBlur result="blurOut" stdDeviation="2.0"/><feColorMatrix in="blurOut" result="blurOut2" type="matrix" values="0 0 0 0 0 0 0 0 0 0 0 0 0 0 0 0 0 0 .4 0"/><feOffset dx="4.0" dy="4.0" in="blurOut2" result="blurOut3"/><feBlend in="SourceGraphic" in2="blurOut3" mode="normal"/></filter></defs><g><!--MD5=[98fe67276b54ffd6a9ff82e2540df683]
cluster インスタンス--><polygon fill="#FFFFFF" filter="url(#fobhkp3qv7pf1)" points="14,16,104,16,111,38.2969,610,38.2969,610,1064,14,1064,14,16" style="stroke: #000000; stroke-width: 1.5;"/><line style="stroke: #000000; stroke-width: 1.5;" x1="14" x2="111" y1="38.2969" y2="38.2969"/><text fill="#000000" font-family="sans-serif" font-size="14" font-weight="bold" lengthAdjust="spacingAndGlyphs" textLength="84" x="18" y="30.9951">インスタンス</text><!--MD5=[f62679f24fecb712058d5010dcc90db0]
cluster データベース--><polygon fill="#FFFFFF" filter="url(#fobhkp3qv7pf1)" points="618,204.5,708,204.5,715,226.7969,750,226.7969,750,522.5,618,522.5,618,204.5" style="stroke: #000000; stroke-width: 1.5;"/><line style="stroke: #000000; stroke-width: 1.5;" x1="618" x2="715" y1="226.7969" y2="226.7969"/><text fill="#000000" font-family="sans-serif" font-size="14" font-weight="bold" lengthAdjust="spacingAndGlyphs" textLength="84" x="622" y="219.4951">データベース</text><!--MD5=[b32b2ca5682861591eda31902dbf8d2a]
class サーバ--><rect fill="#FEFECE" filter="url(#fobhkp3qv7pf1)" height="99.2188" id="サーバ" style="stroke: #A80036; stroke-width: 1.5;" width="158" x="431" y="206"/><ellipse cx="487.75" cy="222" fill="#ADD1B2" rx="11" ry="11" style="stroke: #A80036; stroke-width: 1.0;"/><path d="M491.8594,228 L484.1406,228 L484.1406,215.6094 L491.8594,215.6094 L491.8594,217.7656 L486.5938,217.7656 L486.5938,220.4375 L491.3594,220.4375 L491.3594,222.5938 L486.5938,222.5938 L486.5938,225.8438 L491.8594,225.8438 L491.8594,228 Z "/><text fill="#000000" font-family="sans-serif" font-size="12" lengthAdjust="spacingAndGlyphs" textLength="36" x="508.25" y="226.1543">サーバ</text><line style="stroke: #A80036; stroke-width: 1.5;" x1="432" x2="588" y1="238" y2="238"/><ellipse cx="442" cy="249" fill="#000000" rx="3" ry="3" style="stroke: #000000; stroke-width: 1.0;"/><text fill="#000000" font-family="sans-serif" font-size="11" lengthAdjust="spacingAndGlyphs" textLength="88" x="451" y="252.2104">リスナープロセス</text><ellipse cx="442" cy="261.8047" fill="#000000" rx="3" ry="3" style="stroke: #000000; stroke-width: 1.0;"/><text fill="#000000" font-family="sans-serif" font-size="11" lengthAdjust="spacingAndGlyphs" textLength="77" x="451" y="265.0151">サーバプロセス</text><ellipse cx="442" cy="274.6094" fill="#000000" rx="3" ry="3" style="stroke: #000000; stroke-width: 1.0;"/><text fill="#000000" font-family="sans-serif" font-size="11" lengthAdjust="spacingAndGlyphs" textLength="19" x="451" y="277.8198">SID</text><line style="stroke: #A80036; stroke-width: 1.0;" x1="432" x2="588" y1="284.4141" y2="284.4141"/><ellipse cx="442" cy="295.4141" fill="#000000" rx="3" ry="3" style="stroke: #000000; stroke-width: 1.0;"/><text fill="#000000" font-family="sans-serif" font-size="11" lengthAdjust="spacingAndGlyphs" textLength="132" x="451" y="298.6245">プログラムグローバル領域</text><path d="M416,43 L416,83.2656 A0,0 0 0 0 416,83.2656 L505.1051,83.2656 L509.7421,205.8512 L513.1051,83.2656 L602,83.2656 A0,0 0 0 0 602,83.2656 L602,53 L592,43 L416,43 A0,0 0 0 0 416,43 " fill="#FBFB77" filter="url(#fobhkp3qv7pf1)" style="stroke: #A80036; stroke-width: 1.0;"/><path d="M592,43 L592,53 L602,53 L592,43 " fill="#FBFB77" style="stroke: #A80036; stroke-width: 1.0;"/><text fill="#000000" font-family="sans-serif" font-size="13" lengthAdjust="spacingAndGlyphs" textLength="165" x="422" y="60.0669">SID：サーバ内の共有メモリ</text><text fill="#000000" font-family="sans-serif" font-size="13" lengthAdjust="spacingAndGlyphs" textLength="143" x="422" y="75.1997">にアクセスする際に使用</text><!--MD5=[362cef8ea49acc7cbb2fbccef4016519]
class プログラムグローバル領域--><rect fill="#FEFECE" filter="url(#fobhkp3qv7pf1)" height="73.6094" id="プログラムグローバル領域" style="stroke: #A80036; stroke-width: 1.5;" width="176" x="220" y="218.5"/><ellipse cx="235" cy="234.5" fill="#ADD1B2" rx="11" ry="11" style="stroke: #A80036; stroke-width: 1.0;"/><path d="M239.1094,240.5 L231.3906,240.5 L231.3906,228.1094 L239.1094,228.1094 L239.1094,230.2656 L233.8438,230.2656 L233.8438,232.9375 L238.6094,232.9375 L238.6094,235.0938 L233.8438,235.0938 L233.8438,238.3438 L239.1094,238.3438 L239.1094,240.5 Z "/><text fill="#000000" font-family="sans-serif" font-size="12" lengthAdjust="spacingAndGlyphs" textLength="144" x="249" y="238.6543">プログラムグローバル領域</text><line style="stroke: #A80036; stroke-width: 1.5;" x1="221" x2="395" y1="250.5" y2="250.5"/><line style="stroke: #A80036; stroke-width: 1.0;" x1="221" x2="395" y1="258.5" y2="258.5"/><ellipse cx="231" cy="269.5" fill="#000000" rx="3" ry="3" style="stroke: #000000; stroke-width: 1.0;"/><text fill="#000000" font-family="sans-serif" font-size="11" lengthAdjust="spacingAndGlyphs" textLength="111" x="240" y="272.7104">プライベートSQL領域</text><ellipse cx="231" cy="282.3047" fill="#000000" rx="3" ry="3" style="stroke: #000000; stroke-width: 1.0;"/><text fill="#000000" font-family="sans-serif" font-size="11" lengthAdjust="spacingAndGlyphs" textLength="88" x="240" y="285.5151">セッションメモリ</text><!--MD5=[d5da51b2d5e2d0ca28e1ec892f289ad7]
class インスタンス--><rect fill="#FEFECE" filter="url(#fobhkp3qv7pf1)" height="112.0234" id="インスタンス" style="stroke: #A80036; stroke-width: 1.5;" width="158" x="433" y="428"/><ellipse cx="472.3" cy="444" fill="#ADD1B2" rx="11" ry="11" style="stroke: #A80036; stroke-width: 1.0;"/><path d="M476.4094,450 L468.6906,450 L468.6906,437.6094 L476.4094,437.6094 L476.4094,439.7656 L471.1438,439.7656 L471.1438,442.4375 L475.9094,442.4375 L475.9094,444.5938 L471.1438,444.5938 L471.1438,447.8438 L476.4094,447.8438 L476.4094,450 Z "/><text fill="#000000" font-family="sans-serif" font-size="12" lengthAdjust="spacingAndGlyphs" textLength="72" x="491.7" y="448.1543">インスタンス</text><line style="stroke: #A80036; stroke-width: 1.5;" x1="434" x2="590" y1="460" y2="460"/><ellipse cx="444" cy="471" fill="#000000" rx="3" ry="3" style="stroke: #000000; stroke-width: 1.0;"/><text fill="#000000" font-family="sans-serif" font-size="11" lengthAdjust="spacingAndGlyphs" textLength="132" x="453" y="474.2104">グローバルデータベース名</text><ellipse cx="444" cy="483.8047" fill="#000000" rx="3" ry="3" style="stroke: #000000; stroke-width: 1.0;"/><text fill="#000000" font-family="sans-serif" font-size="11" lengthAdjust="spacingAndGlyphs" textLength="55" x="453" y="487.0151">サービス名</text><ellipse cx="444" cy="496.6094" fill="#000000" rx="3" ry="3" style="stroke: #000000; stroke-width: 1.0;"/><text fill="#000000" font-family="sans-serif" font-size="11" lengthAdjust="spacingAndGlyphs" textLength="77" x="453" y="499.8198">インスタンス名</text><line style="stroke: #A80036; stroke-width: 1.0;" x1="434" x2="590" y1="506.4141" y2="506.4141"/><ellipse cx="444" cy="517.4141" fill="#000000" rx="3" ry="3" style="stroke: #000000; stroke-width: 1.0;"/><text fill="#000000" font-family="sans-serif" font-size="11" lengthAdjust="spacingAndGlyphs" textLength="121" x="453" y="520.6245">システムグローバル領域</text><ellipse cx="444" cy="530.2188" fill="#000000" rx="3" ry="3" style="stroke: #000000; stroke-width: 1.0;"/><text fill="#000000" font-family="sans-serif" font-size="11" lengthAdjust="spacingAndGlyphs" textLength="132" x="453" y="533.4292">バックグラウンドプロセス</text><path d="M104,456.5 L104,511.8984 A0,0 0 0 0 104,511.8984 L398,511.8984 A0,0 0 0 0 398,511.8984 L398,488 L432.7812,484 L398,480 L398,466.5 L388,456.5 L104,456.5 A0,0 0 0 0 104,456.5 " fill="#FBFB77" filter="url(#fobhkp3qv7pf1)" style="stroke: #A80036; stroke-width: 1.0;"/><path d="M388,456.5 L388,466.5 L398,466.5 L388,456.5 " fill="#FBFB77" style="stroke: #A80036; stroke-width: 1.0;"/><text fill="#000000" font-family="sans-serif" font-size="13" lengthAdjust="spacingAndGlyphs" textLength="260" x="110" y="473.5669">インスタンス名：単一のインスタンスを識別</text><text fill="#000000" font-family="sans-serif" font-size="13" lengthAdjust="spacingAndGlyphs" textLength="273" x="110" y="488.6997">サービス名：同じ機能を持つサービス名を識別</text><text fill="#000000" font-family="sans-serif" font-size="13" lengthAdjust="spacingAndGlyphs" textLength="182" x="118" y="503.8325">（冗長構成時の仮想的な名前）</text><!--MD5=[91034d2b270e283c6b745a50d960b4e5]
class システムグローバル領域--><rect fill="#FEFECE" filter="url(#fobhkp3qv7pf1)" height="73.6094" id="システムグローバル領域" style="stroke: #A80036; stroke-width: 1.5;" width="191" x="22.5" y="663"/><ellipse cx="49.65" cy="679" fill="#ADD1B2" rx="11" ry="11" style="stroke: #A80036; stroke-width: 1.0;"/><path d="M53.7594,685 L46.0406,685 L46.0406,672.6094 L53.7594,672.6094 L53.7594,674.7656 L48.4938,674.7656 L48.4938,677.4375 L53.2594,677.4375 L53.2594,679.5938 L48.4938,679.5938 L48.4938,682.8438 L53.7594,682.8438 L53.7594,685 Z "/><text fill="#000000" font-family="sans-serif" font-size="12" lengthAdjust="spacingAndGlyphs" textLength="132" x="66.35" y="683.1543">システムグローバル領域</text><line style="stroke: #A80036; stroke-width: 1.5;" x1="23.5" x2="212.5" y1="695" y2="695"/><ellipse cx="33.5" cy="706" fill="#000000" rx="3" ry="3" style="stroke: #000000; stroke-width: 1.0;"/><text fill="#000000" font-family="sans-serif" font-size="11" lengthAdjust="spacingAndGlyphs" textLength="165" x="42.5" y="709.2104">データベースバッファキャッシュ</text><ellipse cx="33.5" cy="718.8047" fill="#000000" rx="3" ry="3" style="stroke: #000000; stroke-width: 1.0;"/><text fill="#000000" font-family="sans-serif" font-size="11" lengthAdjust="spacingAndGlyphs" textLength="97" x="42.5" y="722.0151">REDOログバッファ</text><line style="stroke: #A80036; stroke-width: 1.5;" x1="23.5" x2="212.5" y1="728.6094" y2="728.6094"/><!--MD5=[d9541f9dedcfe61728cbeca4bd378eab]
class バックグラウンドプロセス--><rect fill="#FEFECE" filter="url(#fobhkp3qv7pf1)" height="48" id="バックグラウンドプロセス" style="stroke: #A80036; stroke-width: 1.5;" width="176" x="426" y="676"/><ellipse cx="441" cy="692" fill="#ADD1B2" rx="11" ry="11" style="stroke: #A80036; stroke-width: 1.0;"/><path d="M445.1094,698 L437.3906,698 L437.3906,685.6094 L445.1094,685.6094 L445.1094,687.7656 L439.8438,687.7656 L439.8438,690.4375 L444.6094,690.4375 L444.6094,692.5938 L439.8438,692.5938 L439.8438,695.8438 L445.1094,695.8438 L445.1094,698 Z "/><text fill="#000000" font-family="sans-serif" font-size="12" lengthAdjust="spacingAndGlyphs" textLength="144" x="455" y="696.1543">バックグラウンドプロセス</text><line style="stroke: #A80036; stroke-width: 1.5;" x1="427" x2="601" y1="708" y2="708"/><line style="stroke: #A80036; stroke-width: 1.5;" x1="427" x2="601" y1="716" y2="716"/><!--MD5=[391209f94d48afadf7885f31e958334e]
class DBWn--><rect fill="#FEFECE" filter="url(#fobhkp3qv7pf1)" height="48" id="DBWn" style="stroke: #A80036; stroke-width: 1.5;" width="68" x="375" y="860"/><ellipse cx="390" cy="876" fill="#ADD1B2" rx="11" ry="11" style="stroke: #A80036; stroke-width: 1.0;"/><path d="M394.1094,882 L386.3906,882 L386.3906,869.6094 L394.1094,869.6094 L394.1094,871.7656 L388.8438,871.7656 L388.8438,874.4375 L393.6094,874.4375 L393.6094,876.5938 L388.8438,876.5938 L388.8438,879.8438 L394.1094,879.8438 L394.1094,882 Z "/><text fill="#000000" font-family="sans-serif" font-size="12" lengthAdjust="spacingAndGlyphs" textLength="36" x="404" y="880.1543">DBWn</text><line style="stroke: #A80036; stroke-width: 1.5;" x1="376" x2="442" y1="892" y2="892"/><line style="stroke: #A80036; stroke-width: 1.5;" x1="376" x2="442" y1="900" y2="900"/><path d="M262.5,1031 L262.5,1056.1328 A0,0 0 0 0 262.5,1056.1328 L439.5,1056.1328 A0,0 0 0 0 439.5,1056.1328 L439.5,1041 L429.5,1031 L359.6445,1031 L400.191,908.2246 L351.6445,1031 L262.5,1031 A0,0 0 0 0 262.5,1031 " fill="#FBFB77" filter="url(#fobhkp3qv7pf1)" style="stroke: #A80036; stroke-width: 1.0;"/><path d="M429.5,1031 L429.5,1041 L439.5,1041 L429.5,1031 " fill="#FBFB77" style="stroke: #A80036; stroke-width: 1.0;"/><text fill="#000000" font-family="sans-serif" font-size="13" lengthAdjust="spacingAndGlyphs" textLength="156" x="268.5" y="1048.0669">データベースへの書き込み</text><!--MD5=[ea72b98900b49c1ce432aa0b3ba48c4c]
class LGWR--><rect fill="#FEFECE" filter="url(#fobhkp3qv7pf1)" height="48" id="LGWR" style="stroke: #A80036; stroke-width: 1.5;" width="66" x="495" y="860"/><ellipse cx="510" cy="876" fill="#ADD1B2" rx="11" ry="11" style="stroke: #A80036; stroke-width: 1.0;"/><path d="M514.1094,882 L506.3906,882 L506.3906,869.6094 L514.1094,869.6094 L514.1094,871.7656 L508.8438,871.7656 L508.8438,874.4375 L513.6094,874.4375 L513.6094,876.5938 L508.8438,876.5938 L508.8438,879.8438 L514.1094,879.8438 L514.1094,882 Z "/><text fill="#000000" font-family="sans-serif" font-size="12" lengthAdjust="spacingAndGlyphs" textLength="34" x="524" y="880.1543">LGWR</text><line style="stroke: #A80036; stroke-width: 1.5;" x1="496" x2="560" y1="892" y2="892"/><line style="stroke: #A80036; stroke-width: 1.5;" x1="496" x2="560" y1="900" y2="900"/><path d="M474.5,1031 L474.5,1056.1328 A0,0 0 0 0 474.5,1056.1328 L599.5,1056.1328 A0,0 0 0 0 599.5,1056.1328 L599.5,1041 L589.5,1031 L540.2793,1031 L529.3669,908.2246 L532.2793,1031 L474.5,1031 A0,0 0 0 0 474.5,1031 " fill="#FBFB77" filter="url(#fobhkp3qv7pf1)" style="stroke: #A80036; stroke-width: 1.0;"/><path d="M589.5,1031 L589.5,1041 L599.5,1041 L589.5,1031 " fill="#FBFB77" style="stroke: #A80036; stroke-width: 1.0;"/><text fill="#000000" font-family="sans-serif" font-size="13" lengthAdjust="spacingAndGlyphs" textLength="104" x="480.5" y="1048.0669">ログへの書き込み</text><!--MD5=[fd61520c108536580a3be880cd4db0c0]
class ストレージ装置--><rect fill="#FEFECE" filter="url(#fobhkp3qv7pf1)" height="48" id="ストレージ装置" style="stroke: #A80036; stroke-width: 1.5;" width="116" x="626" y="231.5"/><ellipse cx="641" cy="247.5" fill="#ADD1B2" rx="11" ry="11" style="stroke: #A80036; stroke-width: 1.0;"/><path d="M645.1094,253.5 L637.3906,253.5 L637.3906,241.1094 L645.1094,241.1094 L645.1094,243.2656 L639.8438,243.2656 L639.8438,245.9375 L644.6094,245.9375 L644.6094,248.0938 L639.8438,248.0938 L639.8438,251.3438 L645.1094,251.3438 L645.1094,253.5 Z "/><text fill="#000000" font-family="sans-serif" font-size="12" lengthAdjust="spacingAndGlyphs" textLength="84" x="655" y="251.6543">ストレージ装置</text><line style="stroke: #A80036; stroke-width: 1.5;" x1="627" x2="741" y1="263.5" y2="263.5"/><line style="stroke: #A80036; stroke-width: 1.5;" x1="627" x2="741" y1="271.5" y2="271.5"/><!--MD5=[f9ded337d1af320ba7666b71d64f2f75]
class データベース--><rect fill="#FEFECE" filter="url(#fobhkp3qv7pf1)" height="60.8047" id="データベース" style="stroke: #A80036; stroke-width: 1.5;" width="104" x="629" y="453.5"/><ellipse cx="644" cy="469.5" fill="#ADD1B2" rx="11" ry="11" style="stroke: #A80036; stroke-width: 1.0;"/><path d="M648.1094,475.5 L640.3906,475.5 L640.3906,463.1094 L648.1094,463.1094 L648.1094,465.2656 L642.8438,465.2656 L642.8438,467.9375 L647.6094,467.9375 L647.6094,470.0938 L642.8438,470.0938 L642.8438,473.3438 L648.1094,473.3438 L648.1094,475.5 Z "/><text fill="#000000" font-family="sans-serif" font-size="12" lengthAdjust="spacingAndGlyphs" textLength="72" x="658" y="473.6543">データベース</text><line style="stroke: #A80036; stroke-width: 1.5;" x1="630" x2="732" y1="485.5" y2="485.5"/><ellipse cx="640" cy="496.5" fill="#000000" rx="3" ry="3" style="stroke: #000000; stroke-width: 1.0;"/><text fill="#000000" font-family="sans-serif" font-size="11" lengthAdjust="spacingAndGlyphs" textLength="66" x="649" y="499.7104">物理ファイル</text><line style="stroke: #A80036; stroke-width: 1.5;" x1="630" x2="732" y1="506.3047" y2="506.3047"/><!--MD5=[57ee91aa7433da04171c1effd491286c]
link ストレージ装置 to データベース--><path d="M683.5787,287.5867 C683.0356,328.9585 682.0917,400.8476 681.509,445.2315 " fill="none" id="ストレージ装置-データベース" style="stroke: #A80036; stroke-width: 1.0;"/><line style="stroke: #A80036; stroke-width: 1.0;" x1="681.5061" x2="687.4005" y1="445.4555" y2="453.5337"/><line style="stroke: #A80036; stroke-width: 1.0;" x1="681.5061" x2="675.4015" y1="445.4555" y2="453.3759"/><line style="stroke: #A80036; stroke-width: 1.0;" x1="681.5061" x2="681.401" y1="445.4555" y2="453.4548"/><line style="stroke: #A80036; stroke-width: 1.0;" x1="685.5321" x2="677.5328" y1="443.5082" y2="443.4031"/><line style="stroke: #A80036; stroke-width: 1.0;" x1="683.5795" x2="677.6851" y1="287.5209" y2="279.4427"/><line style="stroke: #A80036; stroke-width: 1.0;" x1="683.5795" x2="689.6841" y1="287.5209" y2="279.6005"/><line style="stroke: #A80036; stroke-width: 1.0;" x1="683.5795" x2="683.6846" y1="287.5209" y2="279.5216"/><line style="stroke: #A80036; stroke-width: 1.0;" x1="679.5535" x2="687.5528" y1="289.4682" y2="289.5733"/><!--MD5=[36e4cb5dfa1331e2eff807d738380ca5]
link サーバ to インスタンス--><path d="M510.5061,313.3203 C510.789,345.6394 511.1423,386.0029 511.4342,419.3628 " fill="none" id="サーバ-インスタンス" style="stroke: #A80036; stroke-width: 1.0;"/><line style="stroke: #A80036; stroke-width: 1.0;" x1="511.437" x2="517.5069" y1="419.6844" y2="427.6315"/><line style="stroke: #A80036; stroke-width: 1.0;" x1="511.437" x2="505.5073" y1="419.6844" y2="427.7367"/><line style="stroke: #A80036; stroke-width: 1.0;" x1="511.437" x2="511.5071" y1="419.6844" y2="427.6841"/><line style="stroke: #A80036; stroke-width: 1.0;" x1="515.4193" x2="507.4196" y1="417.6494" y2="417.7196"/><line style="stroke: #A80036; stroke-width: 1.0;" x1="510.504" x2="504.4342" y1="313.0808" y2="305.1336"/><line style="stroke: #A80036; stroke-width: 1.0;" x1="510.504" x2="516.4338" y1="313.0808" y2="305.0286"/><line style="stroke: #A80036; stroke-width: 1.0;" x1="510.504" x2="510.434" y1="313.0808" y2="305.0811"/><line style="stroke: #A80036; stroke-width: 1.0;" x1="506.5217" x2="514.5213" y1="315.1157" y2="315.0457"/><!--MD5=[51751b10a5ac112936422b4e89aa296b]
link インスタンス to データベース--><path d="M599.3316,525.9528 C610.6347,525.5763 621.9378,522.9453 633.2408,518.0598 " fill="none" id="インスタンス-データベース" style="stroke: #A80036; stroke-width: 1.0;"/><line style="stroke: #A80036; stroke-width: 1.0;" x1="633.445" x2="638.0902" y1="517.9626" y2="509.107"/><line style="stroke: #A80036; stroke-width: 1.0;" x1="633.445" x2="643.247" y1="517.9626" y2="519.9424"/><line style="stroke: #A80036; stroke-width: 1.0;" x1="633.445" x2="640.6686" y1="517.9626" y2="514.5247"/><line style="stroke: #A80036; stroke-width: 1.0;" x1="629.9201" x2="633.358" y1="515.2102" y2="522.4339"/><line style="stroke: #A80036; stroke-width: 1.0;" x1="599.218" x2="591.1322" y1="525.9513" y2="531.8353"/><line style="stroke: #A80036; stroke-width: 1.0;" x1="599.218" x2="591.3054" y1="525.9513" y2="519.8365"/><line style="stroke: #A80036; stroke-width: 1.0;" x1="599.218" x2="591.2188" y1="525.9513" y2="525.8359"/><line style="stroke: #A80036; stroke-width: 1.0;" x1="601.16" x2="601.2755" y1="529.9798" y2="521.9806"/><!--MD5=[63e38efe3bf4577d2ba38ffd63245339]
reverse link インスタンス to システムグローバル領域--><path d="M421.4326,536.9469 C419.6078,537.9761 417.7954,538.9948 416,540 C338.8879,583.1746 249.4493,630.8838 188.8287,662.874 " fill="none" id="インスタンス&lt;-システムグローバル領域" style="stroke: #A80036; stroke-width: 1.0;"/><polygon fill="#FFFFFF" points="432.7605,530.5163,425.5679,529.9998,422.3248,536.4404,429.5174,536.957,432.7605,530.5163" style="stroke: #A80036; stroke-width: 1.0;"/><!--MD5=[f18173f09fd3a3eb05b4d5759b99b2ed]
reverse link インスタンス to バックグラウンドプロセス--><path d="M512.6407,553.1972 C513.03,595.2453 513.5032,646.3439 513.7762,675.8247 " fill="none" id="インスタンス&lt;-バックグラウンドプロセス" style="stroke: #A80036; stroke-width: 1.0;"/><polygon fill="#FFFFFF" points="512.5203,540.1876,508.5761,546.2244,512.6315,552.1871,516.5757,546.1503,512.5203,540.1876" style="stroke: #A80036; stroke-width: 1.0;"/><!--MD5=[8e73536187c8cd37e99fbffccba9aefb]
link プログラムグローバル領域 to サーバ--><path d="M396.375,255.5 C403.4974,255.5 410.6197,255.5 417.7421,255.5 " fill="none" id="プログラムグローバル領域-&gt;サーバ" style="stroke: #A80036; stroke-width: 1.0;"/><polygon fill="#FFFFFF" points="430.9951,255.5,424.9951,251.5,418.9951,255.5,424.9951,259.5,430.9951,255.5" style="stroke: #A80036; stroke-width: 1.0;"/><!--MD5=[6df20f5063af6f81f5d0693801c7f9fc]
link システムグローバル領域 to バックグラウンドプロセス--><path d="M213.6081,700 C278.1524,700 362.724,700 425.6814,700 " fill="none" id="システムグローバル領域-バックグラウンドプロセス" style="stroke: #A80036; stroke-width: 1.0;"/><path d="M235.75,648 L235.75,688 L399.75,688 L399.75,658 L389.75,648 L235.75,648 " fill="#00FFFF" filter="url(#fobhkp3qv7pf1)" style="stroke: #A80036; stroke-width: 1.0;"/><path d="M389.75,648 L389.75,658 L399.75,658 L389.75,648 " fill="#00FFFF" style="stroke: #A80036; stroke-width: 1.0;"/><text fill="#000000" font-family="sans-serif" font-size="13" lengthAdjust="spacingAndGlyphs" textLength="143" x="241.75" y="665.0669">システムグローバル領域</text><text fill="#000000" font-family="sans-serif" font-size="13" lengthAdjust="spacingAndGlyphs" textLength="104" x="241.75" y="680.1997">の内容を書き込み</text><!--MD5=[70087a52722d7ab11c8953d31db050d2]
reverse link バックグラウンドプロセス to DBWn--><path d="M490.2893,741.5503 C469.4564,778.0574 439.8681,829.9074 422.7303,859.9393 " fill="none" id="バックグラウンドプロセス&lt;-DBWn" style="stroke: #A80036; stroke-width: 1.0;"/><polygon fill="none" points="484.2807,737.956,500.2731,724.0548,496.4402,744.8949,484.2807,737.956" style="stroke: #A80036; stroke-width: 1.0;"/><!--MD5=[9f6ef044fcf6e70dfd026c740f48f4aa]
reverse link バックグラウンドプロセス to LGWR--><path d="M517.3544,744.086 C520.1192,780.4243 523.9367,830.5962 526.1693,859.9393 " fill="none" id="バックグラウンドプロセス&lt;-LGWR" style="stroke: #A80036; stroke-width: 1.0;"/><polygon fill="none" points="510.3679,744.5283,515.8303,724.0548,524.3275,743.466,510.3679,744.5283" style="stroke: #A80036; stroke-width: 1.0;"/><!--MD5=[b763bfa5cf8c9680779cae48253d8d5a]
@startuml

package インスタンス {
  entity サーバ {
    * リスナープロセス
    * サーバプロセス
    * SID
    - -
    * プログラムグローバル領域
  }
    note top of サーバ
      SID：サーバ内の共有メモリ
      にアクセスする際に使用
    end note
  entity プログラムグローバル領域 {
    - -
    * プライベートSQL領域
    * セッションメモリ
  }
  entity インスタンス {
    * グローバルデータベース名
    * サービス名
    * インスタンス名
    - -
    * システムグローバル領域
    * バックグラウンドプロセス
  }
  note left of インスタンス
    インスタンス名：単一のインスタンスを識別
    サービス名：同じ機能を持つサービス名を識別
      （冗長構成時の仮想的な名前）
  end note
  entity システムグローバル領域 {

    * データベースバッファキャッシュ
    * REDOログバッファ
  }
  entity バックグラウンドプロセス
  entity DBWn
    note bottom
      データベースへの書き込み
    end note
  entity LGWR
    note bottom
      ログへの書き込み
    end note
}

package データベース {
  entity ストレージ装置 {
  }
  entity データベース {
    * 物理ファイル
  }
}

ストレージ装置 }|-do-|{ データベース
サーバ }|-do-|{ インスタンス


インスタンス }|-ri-|{ データベース
インスタンス o-do- システムグローバル領域
インスタンス o-do- バックグラウンドプロセス
サーバ o-le- プログラムグローバル領域

システムグローバル領域 -ri- バックグラウンドプロセス
note on link #00ffff
  システムグローバル領域
  の内容を書き込み
end note
バックグラウンドプロセス <|- - DBWn
バックグラウンドプロセス <|- - LGWR

@enduml

PlantUML version 1.2020.02(Sun Mar 01 10:22:07 UTC 2020)
(GPL source distribution)
Java Runtime: OpenJDK Runtime Environment
JVM: OpenJDK 64-Bit Server VM
Java Version: 1.8.0_242-b08
Operating System: Linux
Default Encoding: UTF-8
Language: en
Country: null
--></g></svg>